solid OpenSCAD_Model
  facet normal -0.980785 -0.19509 0
    outer loop
      vertex 0.380603 -1.91342 0
      vertex 0 0 10
      vertex 0 0 0
    endloop
  endfacet
  facet normal -0.980785 -0.19509 0
    outer loop
      vertex 0 0 10
      vertex 0.380603 -1.91342 0
      vertex 0.380603 -1.91342 10
    endloop
  endfacet
  facet normal 0.195089 -0.980786 0
    outer loop
      vertex 5 -5 0
      vertex 6.91342 -4.6194 10
      vertex 5 -5 10
    endloop
  endfacet
  facet normal 0.195089 -0.980786 0
    outer loop
      vertex 6.91342 -4.6194 10
      vertex 5 -5 0
      vertex 6.91342 -4.6194 0
    endloop
  endfacet
  facet normal 0.831467 -0.555574 0
    outer loop
      vertex 8.53553 -3.53553 10
      vertex 9.6194 -1.91342 0
      vertex 9.6194 -1.91342 10
    endloop
  endfacet
  facet normal 0.831467 -0.555574 0
    outer loop
      vertex 9.6194 -1.91342 0
      vertex 8.53553 -3.53553 10
      vertex 8.53553 -3.53553 0
    endloop
  endfacet
  facet normal 0.980786 -0.195089 0
    outer loop
      vertex 9.6194 -1.91342 10
      vertex 10 0 0
      vertex 10 0 10
    endloop
  endfacet
  facet normal 0.980786 -0.195089 0
    outer loop
      vertex 10 0 0
      vertex 9.6194 -1.91342 10
      vertex 9.6194 -1.91342 0
    endloop
  endfacet
  facet normal 0.555574 -0.831467 0
    outer loop
      vertex 6.91342 -4.6194 0
      vertex 8.53553 -3.53553 10
      vertex 6.91342 -4.6194 10
    endloop
  endfacet
  facet normal 0.555574 -0.831467 0
    outer loop
      vertex 8.53553 -3.53553 10
      vertex 6.91342 -4.6194 0
      vertex 8.53553 -3.53553 0
    endloop
  endfacet
  facet normal 0 0 -1
    outer loop
      vertex 0 0 0
      vertex 10 0 0
      vertex 9.6194 -1.91342 0
    endloop
  endfacet
  facet normal 0 0 -1
    outer loop
      vertex 0 0 0
      vertex 9.6194 -1.91342 0
      vertex 8.53553 -3.53553 0
    endloop
  endfacet
  facet normal 0 0 -1
    outer loop
      vertex 0 0 0
      vertex 8.53553 -3.53553 0
      vertex 6.91342 -4.6194 0
    endloop
  endfacet
  facet normal 0 0 -1
    outer loop
      vertex 0 0 0
      vertex 6.91342 -4.6194 0
      vertex 5 -5 0
    endloop
  endfacet
  facet normal 0 0 -1
    outer loop
      vertex 0 0 0
      vertex 5 -5 0
      vertex 3.08658 -4.6194 0
    endloop
  endfacet
  facet normal 0 0 -1
    outer loop
      vertex 0 0 0
      vertex 3.08658 -4.6194 0
      vertex 1.46447 -3.53553 0
    endloop
  endfacet
  facet normal 0 0 -1
    outer loop
      vertex 0 0 0
      vertex 1.46447 -3.53553 0
      vertex 0.380603 -1.91342 0
    endloop
  endfacet
  facet normal 0 0 -1
    outer loop
      vertex 10 0 0
      vertex 0 0 0
      vertex 10 10 0
    endloop
  endfacet
  facet normal 0 0 -1
    outer loop
      vertex 0 0 0
      vertex 0 10 0
      vertex 10 10 0
    endloop
  endfacet
  facet normal 0 0 -1
    outer loop
      vertex -1.91342 0.380602 0
      vertex 0 10 0
      vertex 0 0 0
    endloop
  endfacet
  facet normal 0 0 -1
    outer loop
      vertex -1.91342 0.380602 0
      vertex -1.91342 9.6194 0
      vertex 0 10 0
    endloop
  endfacet
  facet normal 0 0 -1
    outer loop
      vertex -3.53553 1.46447 0
      vertex -1.91342 9.6194 0
      vertex -1.91342 0.380602 0
    endloop
  endfacet
  facet normal 0 0 -1
    outer loop
      vertex -3.53553 1.46447 0
      vertex -3.53553 8.53553 0
      vertex -1.91342 9.6194 0
    endloop
  endfacet
  facet normal 0 0 -1
    outer loop
      vertex -4.6194 3.08658 0
      vertex -3.53553 8.53553 0
      vertex -3.53553 1.46447 0
    endloop
  endfacet
  facet normal 0 0 -1
    outer loop
      vertex -4.6194 3.08658 0
      vertex -4.6194 6.91342 0
      vertex -3.53553 8.53553 0
    endloop
  endfacet
  facet normal 0 -0 -1
    outer loop
      vertex -4.6194 6.91342 0
      vertex -4.6194 3.08658 0
      vertex -5 5 0
    endloop
  endfacet
  facet normal -0.831468 -0.555573 0
    outer loop
      vertex 1.46447 -3.53553 0
      vertex 0.380603 -1.91342 10
      vertex 0.380603 -1.91342 0
    endloop
  endfacet
  facet normal -0.831468 -0.555573 0
    outer loop
      vertex 0.380603 -1.91342 10
      vertex 1.46447 -3.53553 0
      vertex 1.46447 -3.53553 10
    endloop
  endfacet
  facet normal -0.195089 -0.980786 0
    outer loop
      vertex 3.08658 -4.6194 0
      vertex 5 -5 10
      vertex 3.08658 -4.6194 10
    endloop
  endfacet
  facet normal -0.195089 -0.980786 -0
    outer loop
      vertex 5 -5 10
      vertex 3.08658 -4.6194 0
      vertex 5 -5 0
    endloop
  endfacet
  facet normal -0.555574 -0.831467 0
    outer loop
      vertex 1.46447 -3.53553 0
      vertex 3.08658 -4.6194 10
      vertex 1.46447 -3.53553 10
    endloop
  endfacet
  facet normal -0.555574 -0.831467 -0
    outer loop
      vertex 3.08658 -4.6194 10
      vertex 1.46447 -3.53553 0
      vertex 3.08658 -4.6194 0
    endloop
  endfacet
  facet normal 0 0 1
    outer loop
      vertex 0 0 10
      vertex 10 0 10
      vertex 10 10 10
    endloop
  endfacet
  facet normal 0 0 1
    outer loop
      vertex 10 0 10
      vertex 0 0 10
      vertex 9.6194 -1.91342 10
    endloop
  endfacet
  facet normal 0 0 1
    outer loop
      vertex 9.6194 -1.91342 10
      vertex 0 0 10
      vertex 8.53553 -3.53553 10
    endloop
  endfacet
  facet normal 0 0 1
    outer loop
      vertex 8.53553 -3.53553 10
      vertex 0 0 10
      vertex 6.91342 -4.6194 10
    endloop
  endfacet
  facet normal 0 0 1
    outer loop
      vertex 6.91342 -4.6194 10
      vertex 0 0 10
      vertex 5 -5 10
    endloop
  endfacet
  facet normal 0 0 1
    outer loop
      vertex 5 -5 10
      vertex 0 0 10
      vertex 3.08658 -4.6194 10
    endloop
  endfacet
  facet normal 0 0 1
    outer loop
      vertex 3.08658 -4.6194 10
      vertex 0 0 10
      vertex 1.46447 -3.53553 10
    endloop
  endfacet
  facet normal 0 0 1
    outer loop
      vertex 0 0 10
      vertex 10 10 10
      vertex 0 10 10
    endloop
  endfacet
  facet normal 0 0 1
    outer loop
      vertex 1.46447 -3.53553 10
      vertex 0 0 10
      vertex 0.380603 -1.91342 10
    endloop
  endfacet
  facet normal -0 0 1
    outer loop
      vertex -1.91342 9.6194 10
      vertex 0 0 10
      vertex 0 10 10
    endloop
  endfacet
  facet normal 0 0 1
    outer loop
      vertex -1.91342 9.6194 10
      vertex -1.91342 0.380602 10
      vertex 0 0 10
    endloop
  endfacet
  facet normal -0 0 1
    outer loop
      vertex -3.53553 8.53553 10
      vertex -1.91342 0.380602 10
      vertex -1.91342 9.6194 10
    endloop
  endfacet
  facet normal 0 0 1
    outer loop
      vertex -3.53553 8.53553 10
      vertex -3.53553 1.46447 10
      vertex -1.91342 0.380602 10
    endloop
  endfacet
  facet normal -0 0 1
    outer loop
      vertex -4.6194 6.91342 10
      vertex -3.53553 1.46447 10
      vertex -3.53553 8.53553 10
    endloop
  endfacet
  facet normal 0 0 1
    outer loop
      vertex -4.6194 6.91342 10
      vertex -4.6194 3.08658 10
      vertex -3.53553 1.46447 10
    endloop
  endfacet
  facet normal 0 -0 1
    outer loop
      vertex -4.6194 3.08658 10
      vertex -4.6194 6.91342 10
      vertex -5 5 10
    endloop
  endfacet
  facet normal -0.980786 0.195089 0
    outer loop
      vertex -5 5 0
      vertex -4.6194 6.91342 10
      vertex -4.6194 6.91342 0
    endloop
  endfacet
  facet normal -0.980786 0.195089 0
    outer loop
      vertex -4.6194 6.91342 10
      vertex -5 5 0
      vertex -5 5 10
    endloop
  endfacet
  facet normal -0.19509 -0.980785 0
    outer loop
      vertex -1.91342 0.380602 0
      vertex 0 0 10
      vertex -1.91342 0.380602 10
    endloop
  endfacet
  facet normal -0.19509 -0.980785 -0
    outer loop
      vertex 0 0 10
      vertex -1.91342 0.380602 0
      vertex 0 0 0
    endloop
  endfacet
  facet normal -0.555574 0.831467 0
    outer loop
      vertex -1.91342 9.6194 0
      vertex -3.53553 8.53553 10
      vertex -1.91342 9.6194 10
    endloop
  endfacet
  facet normal -0.555574 0.831467 0
    outer loop
      vertex -3.53553 8.53553 10
      vertex -1.91342 9.6194 0
      vertex -3.53553 8.53553 0
    endloop
  endfacet
  facet normal -0.195089 0.980786 0
    outer loop
      vertex 0 10 0
      vertex -1.91342 9.6194 10
      vertex 0 10 10
    endloop
  endfacet
  facet normal -0.195089 0.980786 0
    outer loop
      vertex -1.91342 9.6194 10
      vertex 0 10 0
      vertex -1.91342 9.6194 0
    endloop
  endfacet
  facet normal -0.831467 0.555574 0
    outer loop
      vertex -4.6194 6.91342 0
      vertex -3.53553 8.53553 10
      vertex -3.53553 8.53553 0
    endloop
  endfacet
  facet normal -0.831467 0.555574 0
    outer loop
      vertex -3.53553 8.53553 10
      vertex -4.6194 6.91342 0
      vertex -4.6194 6.91342 10
    endloop
  endfacet
  facet normal -0.831467 -0.555574 0
    outer loop
      vertex -3.53553 1.46447 0
      vertex -4.6194 3.08658 10
      vertex -4.6194 3.08658 0
    endloop
  endfacet
  facet normal -0.831467 -0.555574 0
    outer loop
      vertex -4.6194 3.08658 10
      vertex -3.53553 1.46447 0
      vertex -3.53553 1.46447 10
    endloop
  endfacet
  facet normal -0.980786 -0.195089 0
    outer loop
      vertex -4.6194 3.08658 0
      vertex -5 5 10
      vertex -5 5 0
    endloop
  endfacet
  facet normal -0.980786 -0.195089 0
    outer loop
      vertex -5 5 10
      vertex -4.6194 3.08658 0
      vertex -4.6194 3.08658 10
    endloop
  endfacet
  facet normal -0.555573 -0.831468 0
    outer loop
      vertex -3.53553 1.46447 0
      vertex -1.91342 0.380602 10
      vertex -3.53553 1.46447 10
    endloop
  endfacet
  facet normal -0.555573 -0.831468 -0
    outer loop
      vertex -1.91342 0.380602 10
      vertex -3.53553 1.46447 0
      vertex -1.91342 0.380602 0
    endloop
  endfacet
  facet normal 1 -0 0
    outer loop
      vertex 10 0 10
      vertex 10 10 0
      vertex 10 10 10
    endloop
  endfacet
  facet normal 1 0 0
    outer loop
      vertex 10 10 0
      vertex 10 0 10
      vertex 10 0 0
    endloop
  endfacet
  facet normal 0 1 -0
    outer loop
      vertex 10 10 0
      vertex 0 10 10
      vertex 10 10 10
    endloop
  endfacet
  facet normal 0 1 0
    outer loop
      vertex 0 10 10
      vertex 10 10 0
      vertex 0 10 0
    endloop
  endfacet
endsolid OpenSCAD_Model
